<?xml version="1.0" encoding="UTF-8"?>
<svg id="Layer_2" data-name="Layer 2" xmlns="http://www.w3.org/2000/svg" viewBox="0 0 264.5 204">
  <defs>
    <style>
      .cls-1 {
        fill: #ead299;
        fill-rule: evenodd;
      }

      .cls-2 {
        fill: #f15e22;
      }
    </style>
  </defs>
  <g id="Layer_1-2" data-name="Layer 1">
    <path class="cls-1" d="m133.5,204c57.16,0,103.5-45.67,103.5-102S190.66,0,133.5,0,30,45.67,30,102s46.34,102,103.5,102Zm0-8c52.74,0,95.5-42.31,95.5-94.5S186.24,7,133.5,7,38,49.31,38,101.5s42.76,94.5,95.5,94.5Z"/>
    <path class="cls-2" d="m17,105.5L0,82.5h87.5l34.5,46L196.5,26h68l-16,24h-30.5l-87.5,126.5-47-71H17Z"/>
    <path class="cls-1" d="m33.5,77.5h56.5l31,42L191,17.5c-18.33-13.17-66.9-31.6-114.5,0-11,6.83-35,28.4-43,60Zm10.5-10h48l28.5,36.5,59-85.5c-14.5-8.17-53.4-19.6-93,0-9.17,5.5-30.5,23-42.5,49Z"/>
  </g>
</svg>