<?xml version="1.0" encoding="UTF-8"?>
<svg id="Layer_2" data-name="Layer 2" xmlns="http://www.w3.org/2000/svg" viewBox="0 0 72.29 70.35">
  <defs>
    <style>
      .cls-1 {
        fill: #f15e22;
      }
    </style>
  </defs>
  <g id="Layer_1-2" data-name="Layer 1">
    <g>
      <path class="cls-1" d="m32.84,65.63v4.72c-11.99-1.01-21.07-6.59-27.18-16.45-7.62-12.29-7.39-25.13-.3-37.59C10.82,6.7,23.8-.76,32.59.06c1.04,2.99.29,4.71-3.12,5.44-14.05,3.04-24.1,15.46-24.06,29.49.05,14.44,10.22,26.72,24.67,29.78.84.18,1.65.5,2.76.85Z"/>
      <path class="cls-1" d="m39.75,70.02c-1.23-3.87.62-4.62,4.2-5.59,20.03-5.41,29.34-27.91,18.31-45.43-4.45-7.08-10.81-11.79-19.11-13.54-3.11-.66-4.7-1.98-3.27-5.3,11.85-1.06,31.94,11.59,32.4,34.38.41,20.11-16.48,35.69-32.53,35.49Z"/>
      <path class="cls-1" d="m12.93,38.71h4.95c2.92,9.36,9.11,14.87,19.43,14.57,8.08-.23,14.26-5.62,17.2-14.66h5.04c-.75,10.18-10.48,20.1-23.78,19.94-11.64-.14-21.09-8.29-22.84-19.86Z"/>
      <path class="cls-1" d="m59.7,31.32h-5.18c-2.81-9.25-8.97-14.49-18.64-14.71-8.16-.18-14.62,5.37-18,14.69h-5.09c2.4-12,11.07-19.61,22.94-19.87,11.43-.26,21.84,7.48,23.97,19.89Z"/>
      <path class="cls-1" d="m36.12,46.38c-6.77-.03-11.73-4.78-11.69-11.18.04-6.75,5.21-11.75,12.09-11.71,6.28.04,11.45,5.23,11.46,11.53.02,6.59-5,11.39-11.87,11.36Zm-6.13-11.57c-.03,3.71,2.61,6.57,6.06,6.57,3.51,0,6.36-2.83,6.38-6.35.02-3.32-2.73-6.31-5.92-6.45-3.43-.14-6.49,2.77-6.52,6.22Z"/>
    </g>
  </g>
</svg>