<svg width="40" height="40" viewBox="0 0 40 40" fill="none" xmlns="http://www.w3.org/2000/svg">
<g filter="url(#filter0_d_108_55)">
<rect x="4" width="32" height="32" rx="3" fill="#A8DADC"/>
</g>
<path d="M6.532 13V8.198H7.4L9.451 11.033C9.47433 11.061 9.50233 11.1007 9.535 11.152C9.56767 11.1987 9.598 11.2453 9.626 11.292C9.654 11.3387 9.67267 11.376 9.682 11.404H9.717C9.717 11.3387 9.717 11.2757 9.717 11.215C9.717 11.1543 9.717 11.0937 9.717 11.033V8.198H10.592V13H9.731L7.673 10.144C7.63567 10.088 7.59133 10.0203 7.54 9.941C7.49333 9.857 7.46067 9.79867 7.442 9.766H7.407C7.407 9.82667 7.407 9.88967 7.407 9.955C7.407 10.0157 7.407 10.0787 7.407 10.144V13H6.532ZM13.843 13.084C13.101 13.084 12.5246 12.8857 12.114 12.489C11.7033 12.0877 11.498 11.4577 11.498 10.599C11.498 10.0343 11.5936 9.57 11.785 9.206C11.981 8.83733 12.261 8.56433 12.625 8.387C12.9936 8.205 13.4346 8.114 13.948 8.114C14.256 8.114 14.5453 8.149 14.816 8.219C15.0866 8.289 15.3246 8.39633 15.53 8.541C15.74 8.681 15.9033 8.85833 16.02 9.073C16.1366 9.28767 16.195 9.542 16.195 9.836H15.257C15.257 9.682 15.222 9.54667 15.152 9.43C15.0866 9.30867 14.9933 9.20833 14.872 9.129C14.7553 9.045 14.62 8.98433 14.466 8.947C14.312 8.905 14.1486 8.884 13.976 8.884C13.7193 8.884 13.493 8.919 13.297 8.989C13.1056 9.05433 12.9446 9.157 12.814 9.297C12.688 9.43233 12.5923 9.60267 12.527 9.808C12.4663 10.0133 12.436 10.2537 12.436 10.529V10.676C12.436 11.054 12.4896 11.3643 12.597 11.607C12.7043 11.8497 12.8653 12.0293 13.08 12.146C13.2993 12.258 13.57 12.314 13.892 12.314C14.1673 12.314 14.4076 12.272 14.613 12.188C14.823 12.104 14.9863 11.9827 15.103 11.824C15.2243 11.6607 15.285 11.4623 15.285 11.229V11.18H13.752V10.424H16.195V13H15.544L15.467 12.468C15.327 12.608 15.1776 12.7247 15.019 12.818C14.8603 12.9067 14.6853 12.972 14.494 13.014C14.3026 13.0607 14.0856 13.084 13.843 13.084ZM19.4216 13.084C18.9222 13.084 18.4906 12.9953 18.1266 12.818C17.7626 12.636 17.4826 12.3607 17.2866 11.992C17.0952 11.6233 16.9996 11.159 16.9996 10.599C16.9996 10.0343 17.0952 9.57 17.2866 9.206C17.4826 8.83733 17.7626 8.56433 18.1266 8.387C18.4906 8.205 18.9222 8.114 19.4216 8.114C19.9256 8.114 20.3572 8.205 20.7166 8.387C21.0806 8.56433 21.3582 8.83733 21.5496 9.206C21.7456 9.57 21.8436 10.0343 21.8436 10.599C21.8436 11.159 21.7456 11.6233 21.5496 11.992C21.3582 12.3607 21.0806 12.636 20.7166 12.818C20.3572 12.9953 19.9256 13.084 19.4216 13.084ZM19.4216 12.314C19.6642 12.314 19.8766 12.279 20.0586 12.209C20.2452 12.139 20.4016 12.0363 20.5276 11.901C20.6536 11.761 20.7492 11.5907 20.8146 11.39C20.8799 11.1847 20.9126 10.949 20.9126 10.683V10.529C20.9126 10.2583 20.8799 10.0203 20.8146 9.815C20.7492 9.60967 20.6536 9.43933 20.5276 9.304C20.4016 9.164 20.2452 9.059 20.0586 8.989C19.8766 8.919 19.6642 8.884 19.4216 8.884C19.1789 8.884 18.9642 8.919 18.7776 8.989C18.5956 9.059 18.4416 9.164 18.3156 9.304C18.1896 9.43933 18.0939 9.60967 18.0286 9.815C17.9679 10.0203 17.9376 10.2583 17.9376 10.529V10.683C17.9376 10.949 17.9679 11.1847 18.0286 11.39C18.0939 11.5907 18.1896 11.761 18.3156 11.901C18.4416 12.0363 18.5956 12.139 18.7776 12.209C18.9642 12.279 19.1789 12.314 19.4216 12.314ZM7.708 21V16.982H6.175V16.198H10.158V16.982H8.618V21H7.708ZM11.8104 21.084C11.4184 21.084 11.0918 21.0163 10.8304 20.881C10.5691 20.741 10.3731 20.5287 10.2424 20.244C10.1118 19.9593 10.0464 19.5977 10.0464 19.159C10.0464 18.7157 10.1118 18.354 10.2424 18.074C10.3731 17.7893 10.5691 17.5793 10.8304 17.444C11.0918 17.304 11.4184 17.234 11.8104 17.234C12.1651 17.234 12.4614 17.3017 12.6994 17.437C12.9421 17.5677 13.1241 17.7707 13.2454 18.046C13.3668 18.3213 13.4274 18.6783 13.4274 19.117V19.369H10.9214C10.9308 19.5977 10.9658 19.7913 11.0264 19.95C11.0871 20.104 11.1804 20.2207 11.3064 20.3C11.4371 20.3747 11.6074 20.412 11.8174 20.412C11.9248 20.412 12.0251 20.398 12.1184 20.37C12.2118 20.342 12.2934 20.3 12.3634 20.244C12.4334 20.1833 12.4871 20.1087 12.5244 20.02C12.5664 19.9313 12.5874 19.8287 12.5874 19.712H13.4274C13.4274 19.9453 13.3854 20.1483 13.3014 20.321C13.2221 20.4937 13.1078 20.636 12.9584 20.748C12.8138 20.86 12.6434 20.944 12.4474 21C12.2514 21.056 12.0391 21.084 11.8104 21.084ZM10.9354 18.767H12.5384C12.5384 18.613 12.5198 18.4823 12.4824 18.375C12.4498 18.2677 12.4008 18.179 12.3354 18.109C12.2748 18.039 12.2001 17.99 12.1114 17.962C12.0228 17.9293 11.9224 17.913 11.8104 17.913C11.6284 17.913 11.4744 17.9433 11.3484 18.004C11.2271 18.0647 11.1338 18.158 11.0684 18.284C11.0031 18.41 10.9588 18.571 10.9354 18.767ZM14.1523 21V17.318H14.8663L14.9363 17.808H14.9853C15.0693 17.696 15.1673 17.598 15.2793 17.514C15.3959 17.4253 15.5266 17.3577 15.6713 17.311C15.8206 17.2597 15.9839 17.234 16.1613 17.234C16.3946 17.234 16.5999 17.276 16.7773 17.36C16.9593 17.444 17.1016 17.5793 17.2043 17.766C17.3069 17.9527 17.3583 18.2023 17.3583 18.515V21H16.4973V18.669C16.4973 18.5383 16.4809 18.431 16.4483 18.347C16.4203 18.2583 16.3759 18.1883 16.3153 18.137C16.2593 18.081 16.1893 18.0413 16.1053 18.018C16.0213 17.9947 15.9279 17.983 15.8253 17.983C15.6713 17.983 15.5313 18.0203 15.4053 18.095C15.2839 18.1697 15.1859 18.2723 15.1113 18.403C15.0413 18.5337 15.0063 18.6853 15.0063 18.858V21H14.1523ZM19.5212 21.084C19.2225 21.084 18.9635 21.0163 18.7442 20.881C18.5248 20.7457 18.3545 20.5357 18.2332 20.251C18.1165 19.9663 18.0582 19.6 18.0582 19.152C18.0582 18.7087 18.1188 18.347 18.2402 18.067C18.3615 17.7823 18.5295 17.5723 18.7442 17.437C18.9588 17.3017 19.2015 17.234 19.4722 17.234C19.6402 17.234 19.7942 17.2527 19.9342 17.29C20.0742 17.3273 20.1978 17.3857 20.3052 17.465C20.4125 17.5397 20.5035 17.633 20.5782 17.745H20.6202V15.939H21.4742V21H20.7672L20.6972 20.51H20.6482C20.5315 20.7013 20.3728 20.846 20.1722 20.944C19.9762 21.0373 19.7592 21.084 19.5212 21.084ZM19.7872 20.349C19.9832 20.349 20.1418 20.3047 20.2632 20.216C20.3845 20.1273 20.4732 19.999 20.5292 19.831C20.5898 19.663 20.6202 19.4577 20.6202 19.215V19.124C20.6202 18.942 20.6038 18.7787 20.5712 18.634C20.5385 18.4893 20.4872 18.368 20.4172 18.27C20.3518 18.172 20.2655 18.0973 20.1582 18.046C20.0555 17.9947 19.9318 17.969 19.7872 17.969C19.5772 17.969 19.4092 18.011 19.2832 18.095C19.1618 18.1743 19.0732 18.3003 19.0172 18.473C18.9658 18.641 18.9402 18.8557 18.9402 19.117V19.215C18.9402 19.4717 18.9658 19.684 19.0172 19.852C19.0732 20.02 19.1618 20.146 19.2832 20.23C19.4092 20.3093 19.5772 20.349 19.7872 20.349ZM23.9647 21.084C23.5727 21.084 23.2461 21.0163 22.9847 20.881C22.7234 20.741 22.5274 20.5287 22.3967 20.244C22.2661 19.9593 22.2007 19.5977 22.2007 19.159C22.2007 18.7157 22.2661 18.354 22.3967 18.074C22.5274 17.7893 22.7234 17.5793 22.9847 17.444C23.2461 17.304 23.5727 17.234 23.9647 17.234C24.3194 17.234 24.6157 17.3017 24.8537 17.437C25.0964 17.5677 25.2784 17.7707 25.3997 18.046C25.5211 18.3213 25.5817 18.6783 25.5817 19.117V19.369H23.0757C23.0851 19.5977 23.1201 19.7913 23.1807 19.95C23.2414 20.104 23.3347 20.2207 23.4607 20.3C23.5914 20.3747 23.7617 20.412 23.9717 20.412C24.0791 20.412 24.1794 20.398 24.2727 20.37C24.3661 20.342 24.4477 20.3 24.5177 20.244C24.5877 20.1833 24.6414 20.1087 24.6787 20.02C24.7207 19.9313 24.7417 19.8287 24.7417 19.712H25.5817C25.5817 19.9453 25.5397 20.1483 25.4557 20.321C25.3764 20.4937 25.2621 20.636 25.1127 20.748C24.9681 20.86 24.7977 20.944 24.6017 21C24.4057 21.056 24.1934 21.084 23.9647 21.084ZM23.0897 18.767H24.6927C24.6927 18.613 24.6741 18.4823 24.6367 18.375C24.6041 18.2677 24.5551 18.179 24.4897 18.109C24.4291 18.039 24.3544 17.99 24.2657 17.962C24.1771 17.9293 24.0767 17.913 23.9647 17.913C23.7827 17.913 23.6287 17.9433 23.5027 18.004C23.3814 18.0647 23.2881 18.158 23.2227 18.284C23.1574 18.41 23.1131 18.571 23.0897 18.767ZM26.3066 21V17.318H27.0206L27.0906 17.899H27.1396C27.1862 17.7823 27.2422 17.675 27.3076 17.577C27.3776 17.4743 27.4662 17.3927 27.5736 17.332C27.6809 17.2667 27.8116 17.234 27.9656 17.234C28.0402 17.234 28.1079 17.241 28.1686 17.255C28.2339 17.269 28.2829 17.283 28.3156 17.297V18.102H28.0566C27.9119 18.102 27.7836 18.123 27.6716 18.165C27.5596 18.2023 27.4639 18.263 27.3846 18.347C27.3099 18.431 27.2539 18.536 27.2166 18.662C27.1792 18.788 27.1606 18.935 27.1606 19.103V21H26.3066ZM30.2777 21.084C30.0117 21.084 29.7784 21.056 29.5777 21C29.377 20.9393 29.209 20.8577 29.0737 20.755C28.9384 20.6523 28.8357 20.5333 28.7657 20.398C28.7004 20.258 28.6677 20.1063 28.6677 19.943C28.6677 19.9197 28.6677 19.8987 28.6677 19.88C28.6724 19.8613 28.6747 19.8473 28.6747 19.838H29.5147C29.5147 19.8473 29.5147 19.8567 29.5147 19.866C29.5147 19.8753 29.5147 19.8847 29.5147 19.894C29.5194 20.02 29.559 20.1227 29.6337 20.202C29.7084 20.2767 29.8064 20.3303 29.9277 20.363C30.049 20.3957 30.1774 20.412 30.3127 20.412C30.434 20.412 30.5484 20.4003 30.6557 20.377C30.7677 20.349 30.8587 20.307 30.9287 20.251C31.0034 20.1903 31.0407 20.1133 31.0407 20.02C31.0407 19.8987 30.994 19.8053 30.9007 19.74C30.8074 19.6747 30.6837 19.621 30.5297 19.579C30.3804 19.537 30.2194 19.4927 30.0467 19.446C29.8927 19.404 29.7387 19.3573 29.5847 19.306C29.4307 19.2547 29.2907 19.1893 29.1647 19.11C29.0434 19.0307 28.943 18.928 28.8637 18.802C28.789 18.676 28.7517 18.5197 28.7517 18.333C28.7517 18.151 28.7914 17.9923 28.8707 17.857C28.95 17.7217 29.0597 17.6097 29.1997 17.521C29.3397 17.4277 29.5054 17.3577 29.6967 17.311C29.888 17.2643 30.0957 17.241 30.3197 17.241C30.539 17.241 30.7374 17.2643 30.9147 17.311C31.0967 17.3577 31.253 17.4253 31.3837 17.514C31.519 17.598 31.6217 17.703 31.6917 17.829C31.7664 17.9503 31.8037 18.0857 31.8037 18.235C31.8037 18.2677 31.8014 18.3003 31.7967 18.333C31.7967 18.3657 31.7967 18.3843 31.7967 18.389H30.9637V18.34C30.9637 18.2513 30.9357 18.1767 30.8797 18.116C30.8284 18.0507 30.7514 17.9993 30.6487 17.962C30.5507 17.9247 30.427 17.906 30.2777 17.906C30.1657 17.906 30.0677 17.9153 29.9837 17.934C29.8997 17.9527 29.8297 17.9783 29.7737 18.011C29.7224 18.0437 29.6827 18.081 29.6547 18.123C29.6267 18.165 29.6127 18.2117 29.6127 18.263C29.6127 18.3517 29.6477 18.4217 29.7177 18.473C29.7877 18.5243 29.881 18.5687 29.9977 18.606C30.119 18.6433 30.2497 18.683 30.3897 18.725C30.5577 18.7717 30.7304 18.8207 30.9077 18.872C31.085 18.9187 31.2484 18.9793 31.3977 19.054C31.5517 19.1287 31.6754 19.2337 31.7687 19.369C31.862 19.5043 31.9087 19.684 31.9087 19.908C31.9087 20.1227 31.8667 20.307 31.7827 20.461C31.7034 20.6103 31.589 20.7317 31.4397 20.825C31.295 20.9137 31.1224 20.979 30.9217 21.021C30.7257 21.063 30.511 21.084 30.2777 21.084Z" fill="#1724C9"/>
<defs>
<filter id="filter0_d_108_55" x="0" y="0" width="40" height="40" filterUnits="userSpaceOnUse" color-interpolation-filters="sRGB">
<feFlood flood-opacity="0" result="BackgroundImageFix"/>
<feColorMatrix in="SourceAlpha" type="matrix" values="0 0 0 0 0 0 0 0 0 0 0 0 0 0 0 0 0 0 127 0" result="hardAlpha"/>
<feOffset dy="4"/>
<feGaussianBlur stdDeviation="2"/>
<feComposite in2="hardAlpha" operator="out"/>
<feColorMatrix type="matrix" values="0 0 0 0 0 0 0 0 0 0 0 0 0 0 0 0 0 0 0.25 0"/>
<feBlend mode="normal" in2="BackgroundImageFix" result="effect1_dropShadow_108_55"/>
<feBlend mode="normal" in="SourceGraphic" in2="effect1_dropShadow_108_55" result="shape"/>
</filter>
</defs>
</svg>
